<svg xmlns="http://www.w3.org/2000/svg" viewBox="0 0 100 100" fill="#3b82f6">
  <path d="M20 10 C14.46 10 10 14.46 10 20 L10 80 C10 85.54 14.46 90 20 90 L80 90 C85.54 90 90 85.54 90 80 L90 20 C90 14.46 85.54 10 80 10 L20 10 z M20 15 L80 15 C82.77 15 85 17.23 85 20 L85 35 L15 35 L15 20 C15 17.23 17.23 15 20 15 z M25 45 L35 45 L35 55 L25 55 L25 45 z M45 45 L55 45 L55 55 L45 55 L45 45 z M65 45 L75 45 L75 55 L65 55 L65 45 z M25 65 L35 65 L35 75 L25 75 L25 65 z M45 65 L55 65 L55 75 L45 75 L45 65 z M65 65 L75 65 L75 75 L65 75 L65 65 z" fill-rule="evenodd" fill="white"/>
</svg>
